<svg fill="none" height="21" viewBox="0 0 21 21" width="21" xmlns="http://www.w3.org/2000/svg">
    <path clip-rule="evenodd"
        d="M7.875 14.25C7.875 14.0842 7.94414 13.9253 8.06721 13.8081C8.19028 13.6908 8.3572 13.625 8.53125 13.625H12.4688C12.6428 13.625 12.8097 13.6908 12.9328 13.8081C13.0559 13.9253 13.125 14.0842 13.125 14.25C13.125 14.4158 13.0559 14.5747 12.9328 14.6919C12.8097 14.8092 12.6428 14.875 12.4688 14.875H8.53125C8.3572 14.875 8.19028 14.8092 8.06721 14.6919C7.94414 14.5747 7.875 14.4158 7.875 14.25ZM5.25 10.5C5.25 10.3342 5.31914 10.1753 5.44221 10.0581C5.56528 9.94085 5.7322 9.875 5.90625 9.875H15.0938C15.2678 9.875 15.4347 9.94085 15.5578 10.0581C15.6809 10.1753 15.75 10.3342 15.75 10.5C15.75 10.6658 15.6809 10.8247 15.5578 10.9419C15.4347 11.0592 15.2678 11.125 15.0938 11.125H5.90625C5.7322 11.125 5.56528 11.0592 5.44221 10.9419C5.31914 10.8247 5.25 10.6658 5.25 10.5ZM2.625 6.75C2.625 6.58424 2.69414 6.42527 2.81721 6.30806C2.94028 6.19085 3.1072 6.125 3.28125 6.125H17.7188C17.8928 6.125 18.0597 6.19085 18.1828 6.30806C18.3059 6.42527 18.375 6.58424 18.375 6.75C18.375 6.91576 18.3059 7.07473 18.1828 7.19194C18.0597 7.30915 17.8928 7.375 17.7188 7.375H3.28125C3.1072 7.375 2.94028 7.30915 2.81721 7.19194C2.69414 7.07473 2.625 6.91576 2.625 6.75Z"
        fill="#1C1C1C" fill-rule="evenodd" />
</svg>
