<svg fill="none" height="20" viewBox="0 0 20 20" width="20" xmlns="http://www.w3.org/2000/svg">
    <path
        d="M11.6667 16.0833C11.6667 17.5567 10.1733 18.75 8.33333 18.75C6.49333 18.75 5 17.5567 5 16.0833C5 14.61 6.49333 13.4167 8.33333 13.4167C10.1733 13.4167 11.6667 14.61 11.6667 16.0833Z"
        fill="url(#paint0_linear)" />
    <path clip-rule="evenodd" d="M11.6667 2.75V16.0833H10.3333V2.75H11.6667Z"
        fill="url(#paint1_linear)" fill-rule="evenodd" />
    <path
        d="M10.3333 2.51C10.3335 2.20188 10.4404 1.90333 10.6359 1.66511C10.8313 1.4269 11.1032 1.26373 11.4053 1.20333L15.4053 0.403333C15.5987 0.364685 15.7982 0.369406 15.9896 0.417156C16.1809 0.464907 16.3592 0.554499 16.5117 0.679477C16.6643 0.804455 16.7872 0.961708 16.8716 1.13991C16.956 1.3181 16.9999 1.51281 17 1.71V4.08333L10.3333 5.41667V2.51Z"
        fill="url(#paint2_linear)" />
    <defs>
        <linearGradient gradientUnits="userSpaceOnUse" id="paint0_linear" x1="-8.12229" x2="17.1465"
            y1="-0.228355" y2="5.15962">
            <stop stop-color="#C36DD7" />
            <stop offset="1" stop-color="#254BC8" />
        </linearGradient>
        <linearGradient gradientUnits="userSpaceOnUse" id="paint1_linear" x1="7.70888" x2="12.9909"
            y1="-31.3626" y2="-31.2725">
            <stop stop-color="#C36DD7" />
            <stop offset="1" stop-color="#254BC8" />
        </linearGradient>
        <linearGradient gradientUnits="userSpaceOnUse" id="paint2_linear" x1="-2.78895" x2="22.3485"
            y1="-12.515" y2="-6.84219">
            <stop stop-color="#C36DD7" />
            <stop offset="1" stop-color="#254BC8" />
        </linearGradient>
    </defs>
</svg>
