<svg fill="none" height="18" viewBox="0 0 23 18" width="23" xmlns="http://www.w3.org/2000/svg">
    <path clip-rule="evenodd"
        d="M21.5893 9.69229C21.4046 9.69229 21.2274 9.76523 21.0968 9.89506C20.9662 10.0249 20.8928 10.201 20.8928 10.3846V15.2308C20.8928 15.598 20.7461 15.9502 20.4849 16.2098C20.2237 16.4695 19.8694 16.6154 19.5 16.6154H2.7857C2.4163 16.6154 2.06202 16.4695 1.80081 16.2098C1.53959 15.9502 1.39285 15.598 1.39285 15.2308V10.3846C1.39285 10.201 1.31947 10.0249 1.18887 9.89506C1.05826 9.76523 0.881123 9.69229 0.696419 9.69229C0.511715 9.69229 0.334575 9.76523 0.203969 9.89506C0.0733635 10.0249 -9.53674e-06 10.201 -9.53674e-06 10.3846V15.2308C-9.53674e-06 15.9652 0.293485 16.6696 0.815908 17.1889C1.33833 17.7082 2.04689 18 2.7857 18H19.5C20.2388 18 20.9474 17.7082 21.4698 17.1889C21.9922 16.6696 22.2857 15.9652 22.2857 15.2308V10.3846C22.2857 10.201 22.2123 10.0249 22.0817 9.89506C21.9511 9.76523 21.774 9.69229 21.5893 9.69229V9.69229Z"
        fill="url(#paint0_linear)" fill-rule="evenodd" />
    <path clip-rule="evenodd"
        d="M15.322 8.99997C15.1914 8.87019 15.0143 8.79727 14.8296 8.79727C14.6449 8.79727 14.4678 8.87019 14.3372 8.99997L11.1434 12.1749L7.94959 8.99997C7.88534 8.93385 7.8085 8.88111 7.72353 8.84483C7.63856 8.80854 7.54718 8.78944 7.45471 8.78865C7.36224 8.78785 7.27053 8.80536 7.18494 8.84017C7.09935 8.87498 7.02159 8.92639 6.95621 8.99139C6.89082 9.05639 6.8391 9.13369 6.80409 9.21877C6.76907 9.30386 6.75145 9.39502 6.75225 9.48694C6.75306 9.57887 6.77227 9.66971 6.80877 9.75418C6.84527 9.83864 6.89832 9.91503 6.96484 9.9789L10.6503 13.644C10.715 13.7084 10.7919 13.7596 10.8765 13.7945C10.9611 13.8294 11.0518 13.8474 11.1434 13.8474C11.235 13.8474 11.3257 13.8294 11.4103 13.7945C11.4949 13.7596 11.5718 13.7084 11.6365 13.644L15.322 9.9789C15.4525 9.84907 15.5259 9.67301 15.5259 9.48943C15.5259 9.30586 15.4525 9.1298 15.322 8.99997Z"
        fill="url(#paint1_linear)" fill-rule="evenodd" />
    <path clip-rule="evenodd"
        d="M11.143 0C10.9583 0 10.7811 0.0729393 10.6505 0.202772C10.5199 0.332605 10.4465 0.508696 10.4465 0.692307V11.7692C10.4465 11.9528 10.5199 12.1289 10.6505 12.2588C10.7811 12.3886 10.9583 12.4615 11.143 12.4615C11.3277 12.4615 11.5048 12.3886 11.6354 12.2588C11.766 12.1289 11.8394 11.9528 11.8394 11.7692V0.692307C11.8394 0.508696 11.766 0.332605 11.6354 0.202772C11.5048 0.0729393 11.3277 0 11.143 0V0Z"
        fill="url(#paint2_linear)" fill-rule="evenodd" />
    <defs>
        <linearGradient gradientUnits="userSpaceOnUse" id="paint0_linear" x1="66.1517" x2="-6.86908"
            y1="-11.5625" y2="21.8511">
            <stop stop-color="#C36DD7" />
            <stop offset="1" stop-color="#254BC8" />
        </linearGradient>
        <linearGradient gradientUnits="userSpaceOnUse" id="paint1_linear" x1="32.7954" x2="0.826639"
            y1="-4.15387" y2="5.30403">
            <stop stop-color="#C36DD7" />
            <stop offset="1" stop-color="#254BC8" />
        </linearGradient>
        <linearGradient gradientUnits="userSpaceOnUse" id="paint2_linear" x1="14.581" x2="9.06361"
            y1="-31.8821" y2="-31.7769">
            <stop stop-color="#C36DD7" />
            <stop offset="1" stop-color="#254BC8" />
        </linearGradient>
    </defs>
</svg>
