<svg fill="none" height="26" viewBox="0 0 21 26" width="21" xmlns="http://www.w3.org/2000/svg">
    <g opacity="0.7">
        <path
            d="M18.375 11.375H18.7031C19.2439 11.375 19.6875 10.8258 19.6875 10.1562V6.09375C19.6868 5.77078 19.5829 5.46129 19.3984 5.23291C19.214 5.00454 18.964 4.87586 18.7031 4.875H18.375V0H15.75V4.875H15.4219C15.161 4.87586 14.911 5.00454 14.7266 5.23291C14.5421 5.46129 14.4382 5.77078 14.4375 6.09375V10.1562C14.4375 10.8258 14.8811 11.375 15.4219 11.375H15.75V26H18.375V11.375ZM15.75 6.5H18.375V9.75H15.75V6.5ZM12.1406 21.125C12.6814 21.125 13.125 20.5758 13.125 19.9062V15.8438C13.124 15.5209 13.0199 15.2117 12.8355 14.9834C12.6512 14.7551 12.4014 14.6263 12.1406 14.625H11.8125V0H9.1875V14.625H8.85938C8.59862 14.6263 8.34884 14.7551 8.16446 14.9834C7.98008 15.2117 7.87604 15.5209 7.875 15.8438V19.9062C7.875 20.5758 8.31862 21.125 8.85938 21.125H9.1875V26H11.8125V21.125H12.1406ZM9.1875 16.25H11.8125V19.5H9.1875V16.25ZM5.57812 11.375C6.11888 11.375 6.5625 10.8258 6.5625 10.1562V6.09375C6.56181 5.77078 6.45787 5.46129 6.27342 5.23291C6.08896 5.00454 5.83898 4.87586 5.57812 4.875H5.25V0H2.625V4.875H2.29688C2.03602 4.87586 1.78604 5.00454 1.60158 5.23291C1.41713 5.46129 1.31319 5.77078 1.3125 6.09375V10.1562C1.3125 10.8258 1.75481 11.375 2.29688 11.375H2.625V26H5.25V11.375H5.57812ZM2.625 6.5H5.25V9.75H2.625V6.5Z"
            fill="#BCBEC0" />
    </g>
</svg>
