<svg fill="none" height="30" viewBox="0 0 30 30" width="30" xmlns="http://www.w3.org/2000/svg">
    <g opacity="0.7">
        <path
            d="M22.3874 23.7501H7.38742L9.01242 25.3626C9.2478 25.598 9.38004 25.9172 9.38004 26.2501C9.38004 26.583 9.2478 26.9022 9.01242 27.1376C8.77704 27.373 8.4578 27.5052 8.12492 27.5052C7.79205 27.5052 7.4728 27.373 7.23742 27.1376L3.48742 23.3876C3.37026 23.2714 3.27727 23.1331 3.21381 22.9808C3.15035 22.8285 3.11768 22.6651 3.11768 22.5001C3.11768 22.3351 3.15035 22.1717 3.21381 22.0194C3.27727 21.867 3.37026 21.7288 3.48742 21.6126L7.23742 17.8626C7.35363 17.7454 7.49188 17.6524 7.6442 17.589C7.79653 17.5255 7.95991 17.4928 8.12492 17.4928C8.28994 17.4928 8.45332 17.5255 8.60564 17.589C8.75797 17.6524 8.89622 17.7454 9.01242 17.8626C9.12958 17.9788 9.22258 18.117 9.28604 18.2694C9.3495 18.4217 9.38217 18.5851 9.38217 18.7501C9.38217 18.9151 9.3495 19.0785 9.28604 19.2308C9.22258 19.3831 9.12958 19.5214 9.01242 19.6376L7.38742 21.2501H22.3874C22.6435 21.255 22.8981 21.2095 23.1366 21.1161C23.3751 21.0227 23.5928 20.8832 23.7774 20.7056C23.9619 20.528 24.1097 20.3157 24.2122 20.081C24.3148 19.8463 24.37 19.5937 24.3749 19.3376V16.2501C24.3749 15.9186 24.5066 15.6006 24.741 15.3662C24.9755 15.1318 25.2934 15.0001 25.6249 15.0001C25.9564 15.0001 26.2744 15.1318 26.5088 15.3662C26.7432 15.6006 26.8749 15.9186 26.8749 16.2501V19.3376C26.87 19.922 26.7501 20.4997 26.5219 21.0377C26.2937 21.5757 25.9618 22.0635 25.5451 22.4733C25.1284 22.883 24.635 23.2067 24.0932 23.4257C23.5514 23.6448 22.9718 23.755 22.3874 23.7501ZM22.7624 12.1376C22.527 12.373 22.2078 12.5052 21.8749 12.5052C21.542 12.5052 21.2228 12.373 20.9874 12.1376C20.752 11.9022 20.6198 11.5829 20.6198 11.2501C20.6198 10.9172 20.752 10.598 20.9874 10.3626L22.6124 8.75007H7.61242C7.35633 8.7451 7.10177 8.79063 6.86328 8.88406C6.62479 8.97749 6.40704 9.11699 6.22248 9.29459C6.03791 9.47219 5.89014 9.68441 5.78761 9.91914C5.68508 10.1539 5.6298 10.4065 5.62492 10.6626V13.7501C5.62492 14.0816 5.49323 14.3995 5.25881 14.634C5.02439 14.8684 4.70644 15.0001 4.37492 15.0001C4.0434 15.0001 3.72546 14.8684 3.49104 14.634C3.25662 14.3995 3.12492 14.0816 3.12492 13.7501V10.6626C3.12983 10.0782 3.24979 9.50048 3.47797 8.96246C3.70614 8.42444 4.03806 7.93663 4.45477 7.52688C4.87148 7.11714 5.36481 6.79349 5.9066 6.57441C6.4484 6.35534 7.02804 6.24513 7.61242 6.25007H22.6124L20.9874 4.63757C20.8703 4.52137 20.7773 4.38312 20.7138 4.23079C20.6503 4.07847 20.6177 3.91509 20.6177 3.75007C20.6177 3.58506 20.6503 3.42167 20.7138 3.26935C20.7773 3.11703 20.8703 2.97878 20.9874 2.86257C21.1036 2.74541 21.2419 2.65242 21.3942 2.58896C21.5465 2.5255 21.7099 2.49282 21.8749 2.49282C22.0399 2.49282 22.2033 2.5255 22.3556 2.58896C22.508 2.65242 22.6462 2.74541 22.7624 2.86257L26.5124 6.61257C26.6296 6.72878 26.7226 6.86703 26.786 7.01935C26.8495 7.17168 26.8822 7.33506 26.8822 7.50007C26.8822 7.66509 26.8495 7.82847 26.786 7.98079C26.7226 8.13312 26.6296 8.27137 26.5124 8.38757L22.7624 12.1376Z"
            fill="url(#paint0_linear)" />
    </g>
    <defs>
        <linearGradient gradientUnits="userSpaceOnUse" id="paint0_linear" x1="-43.659" x2="48.1011"
            y1="91.4979" y2="76.6262">
            <stop stop-color="#C36DD7" />
            <stop offset="1" stop-color="#254BC8" />
        </linearGradient>
    </defs>
</svg>
