<svg fill="none" height="12" viewBox="0 0 18 12" width="18" xmlns="http://www.w3.org/2000/svg">
    <g clip-path="url(#clip0)">
        <path
            d="M9 0C5.56091 0 2.44216 2.10432 0.140841 5.5223C-0.046947 5.80233 -0.046947 6.19355 0.140841 6.47358C2.44216 9.89568 5.56091 12 9 12C12.4391 12 15.5578 9.89568 17.8592 6.4777C18.047 6.19767 18.047 5.80645 17.8592 5.52642C15.5578 2.10432 12.4391 0 9 0ZM9.24671 10.2251C6.9638 10.3857 5.07857 8.2814 5.22217 5.72409C5.34 3.61565 6.86806 1.90666 8.7533 1.77488C11.0362 1.61428 12.9214 3.7186 12.7778 6.27591C12.6563 8.38023 11.1283 10.0892 9.24671 10.2251ZM9.13257 8.27316C7.90275 8.35964 6.88646 7.22718 6.96747 5.85175C7.03007 4.71517 7.85486 3.79684 8.87113 3.72272C10.101 3.63624 11.1172 4.7687 11.0362 6.14413C10.9699 7.28483 10.1452 8.20316 9.13257 8.27316Z"
            fill="#292929" />
    </g>
    <defs>
        <clipPath id="clip0">
            <rect fill="white" height="12" width="18" />
        </clipPath>
    </defs>
</svg>
