<svg fill="none" height="17" viewBox="0 0 18 17" width="18" xmlns="http://www.w3.org/2000/svg">
    <path
        d="M9 2.99998C5.56091 2.99998 2.44216 5.10431 0.140841 8.52229C-0.0469469 8.80232 -0.0469469 9.19353 0.140841 9.47356C2.44216 12.8957 5.56091 15 9 15C12.4391 15 15.5578 12.8957 17.8592 9.47768C18.0469 9.19765 18.0469 8.80644 17.8592 8.52641C15.5578 5.10431 12.4391 2.99998 9 2.99998ZM9.2467 13.2251C6.96379 13.3857 5.07855 11.2814 5.22215 8.72408C5.33998 6.61563 6.86806 4.90664 8.7533 4.77486C11.0362 4.61426 12.9214 6.71858 12.7778 9.27589C12.6563 11.3802 11.1283 13.0892 9.2467 13.2251ZM9.13256 11.2731C7.90273 11.3596 6.88647 10.2272 6.96747 8.85174C7.03007 7.71515 7.85486 6.79683 8.87113 6.7227C10.101 6.63622 11.1172 7.76869 11.0362 9.14412C10.9699 10.2848 10.1451 11.2031 9.13256 11.2731Z"
        fill="#292929" />
    <path d="M1.57143 1.57141L15.9037 15.9037" stroke="#292929" stroke-linecap="square"
        stroke-width="1.5" />
</svg>
