<svg fill="none" height="27" viewBox="0 0 27 27" width="27" xmlns="http://www.w3.org/2000/svg">
    <path
        d="M23.9583 11.4369H23.0965V11.3925H13.4675V15.672H19.5139C18.6318 18.1633 16.2615 19.9516 13.4675 19.9516C9.92236 19.9516 7.04809 17.0773 7.04809 13.5323C7.04809 9.98717 9.92236 7.1129 13.4675 7.1129C15.1039 7.1129 16.5926 7.73023 17.7262 8.7386L20.7523 5.71241C18.8415 3.93157 16.2855 2.83333 13.4675 2.83333C7.55897 2.83333 2.76852 7.62377 2.76852 13.5323C2.76852 19.4407 7.55897 24.2312 13.4675 24.2312C19.3759 24.2312 24.1664 19.4407 24.1664 13.5323C24.1664 12.8149 24.0926 12.1146 23.9583 11.4369Z"
        fill="#FFC107" />
    <path
        d="M4.00208 8.55244L7.51721 11.1303C8.46835 8.77551 10.7718 7.1129 13.4674 7.1129C15.1038 7.1129 16.5926 7.73023 17.7261 8.7386L20.7523 5.71241C18.8415 3.93157 16.2855 2.83333 13.4674 2.83333C9.35796 2.83333 5.79415 5.15339 4.00208 8.55244Z"
        fill="#FF3D00" />
    <path
        d="M13.4676 24.2312C16.2311 24.2312 18.7421 23.1736 20.6407 21.4537L17.3293 18.6517C16.2191 19.496 14.8624 19.9527 13.4676 19.9516C10.6848 19.9516 8.32191 18.1772 7.43176 15.7009L3.94284 18.389C5.71351 21.8539 9.30942 24.2312 13.4676 24.2312Z"
        fill="#4CAF50" />
    <path
        d="M23.9583 11.4369H23.0965V11.3925H13.4675V15.672H19.514C19.092 16.8577 18.332 17.8938 17.3277 18.6522L17.3293 18.6511L20.6406 21.4532C20.4063 21.6661 24.1664 18.8817 24.1664 13.5322C24.1664 12.8149 24.0926 12.1146 23.9583 11.4369Z"
        fill="#1976D2" />
</svg>
