<svg fill="none" height="12" viewBox="0 0 12 12" width="12" xmlns="http://www.w3.org/2000/svg">
    <path
        d="M10.1561 1.75339C9.01152 0.639107 7.49679 0 6 0C4.50321 0 2.98848 0.639107 1.84393 1.75339C0.654911 2.9108 0 4.41964 0 6C0 6.71438 0.234375 7.63634 0.880714 9.36295C1.52705 11.0896 2.8125 11.8125 3.35545 11.9306C3.51107 11.9646 3.69348 12 3.85714 12C4.13915 12.0002 4.41627 11.9263 4.66071 11.7857L5.03571 11.5714C5.43937 11.3352 5.55723 10.8179 5.325 10.4103L2.99679 6.32357C2.94131 6.22578 2.86698 6.13997 2.7781 6.07111C2.68923 6.00225 2.58757 5.95171 2.47903 5.92241C2.37048 5.89311 2.2572 5.88564 2.14575 5.90043C2.03429 5.91522 1.92688 5.95198 1.82973 6.00857L1.46304 6.22286C1.3221 6.30542 1.19546 6.41026 1.08804 6.5333C1.0747 6.54895 1.05715 6.56043 1.03747 6.56637C1.01779 6.57232 0.99682 6.57248 0.977054 6.56683C0.957289 6.56118 0.939565 6.54997 0.925997 6.53452C0.91243 6.51908 0.903591 6.50006 0.900536 6.47973C0.873537 6.3212 0.859028 6.1608 0.857143 6C0.857143 4.65241 1.41964 3.36214 2.44179 2.36759C3.42857 1.40759 4.72473 0.857143 6 0.857143C7.27527 0.857143 8.57143 1.40759 9.55821 2.36759C10.5804 3.36214 11.1429 4.65241 11.1429 6C11.1404 6.16084 11.1254 6.32125 11.0979 6.47973C11.0948 6.50006 11.086 6.51908 11.0724 6.53452C11.0588 6.54997 11.0411 6.56118 11.0213 6.56683C11.0016 6.57248 10.9806 6.57232 10.9609 6.56637C10.9412 6.56043 10.9237 6.54895 10.9104 6.5333C10.8029 6.41026 10.6763 6.30542 10.5354 6.22286L10.1687 6.00857C10.0715 5.95198 9.9641 5.91522 9.85265 5.90043C9.74119 5.88564 9.62791 5.89311 9.51937 5.92241C9.41082 5.95171 9.30917 6.00225 9.22029 6.07111C9.13141 6.13997 9.05709 6.22578 9.00161 6.32357L6.675 10.4103C6.44277 10.8179 6.56063 11.3352 6.96429 11.5714L7.33929 11.7857C7.58373 11.9263 7.86085 12.0002 8.14286 12C8.30652 12 8.48893 11.9646 8.64455 11.9306C9.1875 11.8125 10.4732 11.0893 11.1193 9.36295C11.7654 7.63661 12 6.71438 12 6C12 4.41964 11.3451 2.9108 10.1561 1.75339Z"
        fill="url(#paint0_linear)" />
    <defs>
        <linearGradient gradientUnits="userSpaceOnUse" id="paint0_linear" x1="-23.6201" x2="22.5871"
            y1="-30.7013" y2="-22.8192">
            <stop stop-color="#C36DD7" />
            <stop offset="1" stop-color="#254BC8" />
        </linearGradient>
    </defs>
</svg>
