<svg fill="none" height="28" viewBox="0 0 31 28" width="31" xmlns="http://www.w3.org/2000/svg">
    <g clip-path="url(#clip0)">
        <path
            d="M15.0894 7.97927L5.16667 16.1518V24.9722C5.16667 25.2006 5.2574 25.4196 5.41889 25.5811C5.58038 25.7426 5.7994 25.8333 6.02778 25.8333L12.0588 25.8177C12.2864 25.8166 12.5043 25.7254 12.6649 25.564C12.8255 25.4026 12.9156 25.1843 12.9156 24.9566V19.8056C12.9156 19.5772 13.0063 19.3582 13.1678 19.1967C13.3293 19.0352 13.5483 18.9444 13.7767 18.9444H17.2212C17.4495 18.9444 17.6686 19.0352 17.8301 19.1967C17.9915 19.3582 18.0823 19.5772 18.0823 19.8056V24.9529C18.0819 25.0662 18.1039 25.1784 18.147 25.2832C18.1902 25.388 18.2535 25.4832 18.3335 25.5635C18.4135 25.6437 18.5086 25.7074 18.6132 25.7509C18.7179 25.7943 18.8301 25.8167 18.9434 25.8167L24.9722 25.8333C25.2006 25.8333 25.4196 25.7426 25.5811 25.5811C25.7426 25.4196 25.8333 25.2006 25.8333 24.9722V16.1458L15.9128 7.97927C15.7962 7.88526 15.6509 7.834 15.5011 7.834C15.3513 7.834 15.206 7.88526 15.0894 7.97927V7.97927ZM30.7632 13.534L26.2639 9.82528V2.37075C26.2639 2.19946 26.1959 2.03519 26.0747 1.91407C25.9536 1.79296 25.7893 1.72491 25.6181 1.72491H22.6042C22.4329 1.72491 22.2686 1.79296 22.1475 1.91407C22.0264 2.03519 21.9583 2.19946 21.9583 2.37075V6.27858L17.1399 2.31424C16.6775 1.93372 16.0972 1.72568 15.4984 1.72568C14.8995 1.72568 14.3193 1.93372 13.8569 2.31424L0.233582 13.534C0.168185 13.588 0.114079 13.6544 0.0743556 13.7294C0.0346325 13.8044 0.0100709 13.8864 0.00207403 13.9709C-0.00592279 14.0554 0.00280194 14.1406 0.0277497 14.2217C0.0526975 14.3028 0.0933793 14.3782 0.147471 14.4435L1.51987 16.1119C1.57381 16.1775 1.64016 16.2318 1.71512 16.2718C1.79008 16.3117 1.87218 16.3364 1.95671 16.3446C2.04125 16.3527 2.12656 16.3441 2.20777 16.3192C2.28897 16.2944 2.36447 16.2537 2.42995 16.1997L15.0894 5.77268C15.206 5.67867 15.3513 5.6274 15.5011 5.6274C15.6509 5.6274 15.7962 5.67867 15.9128 5.77268L28.5728 16.1997C28.6381 16.2537 28.7135 16.2944 28.7946 16.3194C28.8757 16.3443 28.9609 16.3531 29.0454 16.3451C29.1298 16.3371 29.2119 16.3125 29.2869 16.2728C29.3618 16.233 29.4282 16.1789 29.4823 16.1135L30.8547 14.4451C30.9087 14.3794 30.9492 14.3036 30.9739 14.2222C30.9986 14.1407 31.0069 14.0552 30.9984 13.9705C30.9899 13.8859 30.9647 13.8037 30.9244 13.7288C30.884 13.6539 30.8292 13.5877 30.7632 13.534V13.534Z"
            fill="#1C1C1C" fill-opacity="0.8" />
    </g>
    <defs>
        <clipPath id="clip0">
            <rect fill="white" height="27.5556" width="31" />
        </clipPath>
    </defs>
</svg>
