<svg fill="none" height="21" viewBox="0 0 21 21" width="21" xmlns="http://www.w3.org/2000/svg">
    <path
        d="M16.7475 11.3225C16.7825 11.06 16.8 10.7888 16.8 10.5C16.8 10.22 16.7825 9.94001 16.7387 9.67751L18.515 8.29501C18.5915 8.23192 18.6438 8.14424 18.663 8.04692C18.6821 7.94959 18.6669 7.84864 18.62 7.76126L16.94 4.85626C16.8905 4.76838 16.8115 4.70084 16.717 4.6656C16.6226 4.63037 16.5186 4.62972 16.4237 4.66376L14.3325 5.50376C13.895 5.17126 13.4312 4.89126 12.915 4.68126L12.6 2.45876C12.5845 2.3586 12.5336 2.26731 12.4565 2.20149C12.3794 2.13566 12.2813 2.09965 12.18 2.10001H8.81997C8.60997 2.10001 8.44372 2.24876 8.40872 2.45876L8.09372 4.68126C7.57747 4.89126 7.10497 5.18001 6.67622 5.50376L4.58497 4.66376C4.39247 4.59376 4.17372 4.66376 4.06872 4.85626L2.39747 7.76126C2.29247 7.94501 2.32747 8.17251 2.50247 8.29501L4.27872 9.67751C4.23497 9.94001 4.19997 10.2288 4.19997 10.5C4.19997 10.7713 4.21747 11.06 4.26122 11.3225L2.48497 12.705C2.40843 12.7681 2.35613 12.8558 2.33698 12.9531C2.31784 13.0504 2.33303 13.1514 2.37997 13.2388L4.05997 16.1438C4.16497 16.3363 4.38372 16.3975 4.57622 16.3363L6.66747 15.4963C7.10497 15.8288 7.56872 16.1088 8.08497 16.3188L8.39997 18.5413C8.44372 18.7513 8.60997 18.9 8.81997 18.9H12.18C12.39 18.9 12.565 18.7513 12.5912 18.5413L12.9062 16.3188C13.4225 16.1088 13.895 15.8288 14.3237 15.4963L16.415 16.3363C16.6075 16.4063 16.8262 16.3363 16.9312 16.1438L18.6112 13.2388C18.7162 13.0463 18.6725 12.8275 18.5062 12.705L16.7475 11.3225V11.3225ZM10.5 13.65C8.76747 13.65 7.34997 12.2325 7.34997 10.5C7.34997 8.76751 8.76747 7.35001 10.5 7.35001C12.2325 7.35001 13.65 8.76751 13.65 10.5C13.65 12.2325 12.2325 13.65 10.5 13.65Z"
        fill="url(#paint0_linear)" />
    <defs>
        <linearGradient gradientUnits="userSpaceOnUse" id="paint0_linear" x1="-29.838" x2="33.1848"
            y1="-40.8818" y2="-30.4244">
            <stop stop-color="#C36DD7" />
            <stop offset="1" stop-color="#254BC8" />
        </linearGradient>
    </defs>
</svg>
