<svg fill="none" height="21" viewBox="0 0 21 21" width="21" xmlns="http://www.w3.org/2000/svg">
    <path
        d="M12.4687 15.75V14.7656C12.4687 13.5762 13.7624 12.4511 14.6016 11.6484C15.7844 10.5176 16.4062 8.99841 16.4062 7.21874C16.4062 3.93749 13.7923 1.31249 10.5 1.31249C9.72377 1.31033 8.95477 1.46162 8.23721 1.75767C7.51965 2.05372 6.86769 2.48869 6.31881 3.03756C5.76994 3.58644 5.33497 4.2384 5.03892 4.95596C4.74287 5.67352 4.59158 6.44252 4.59374 7.21874C4.59374 8.93484 5.2422 10.557 6.39843 11.6484C7.2331 12.4363 8.53124 13.5639 8.53124 14.7656V15.75"
        stroke="url(#paint0_linear)" stroke-linecap="round" stroke-linejoin="round"
        stroke-width="1.3125" />
    <path d="M9.1875 19.6875H11.8125" stroke="url(#paint1_linear)" stroke-linecap="round"
        stroke-linejoin="round" stroke-width="1.3125" />
    <path d="M8.53125 17.7188H12.4688" stroke="url(#paint2_linear)" stroke-linecap="round"
        stroke-linejoin="round" stroke-width="1.3125" />
    <path d="M10.5 15.75V10.5" stroke="url(#paint3_linear)" stroke-linecap="round"
        stroke-linejoin="round" stroke-width="1.3125" />
    <path
        d="M12.0586 9.84375C12.0586 9.84375 11.1763 10.5 10.5 10.5C9.82365 10.5 8.94141 9.84375 8.94141 9.84375"
        stroke="url(#paint4_linear)" stroke-linecap="round" stroke-linejoin="round"
        stroke-width="1.3125" />
    <defs>
        <linearGradient gradientUnits="userSpaceOnUse" id="paint0_linear" x1="-18.6574" x2="27.2571"
            y1="-35.6251" y2="-29.217">
            <stop stop-color="#C36DD7" />
            <stop offset="1" stop-color="#254BC8" />
        </linearGradient>
        <linearGradient gradientUnits="userSpaceOnUse" id="paint1_linear" x1="4.0206" x2="12.6853"
            y1="17.1291" y2="21.0089">
            <stop stop-color="#C36DD7" />
            <stop offset="1" stop-color="#254BC8" />
        </linearGradient>
        <linearGradient gradientUnits="userSpaceOnUse" id="paint2_linear" x1="0.780895" x2="11.5332"
            y1="15.1603" y2="22.3822">
            <stop stop-color="#C36DD7" />
            <stop offset="1" stop-color="#254BC8" />
        </linearGradient>
        <linearGradient gradientUnits="userSpaceOnUse" id="paint3_linear" x1="8.53166" x2="12.4901"
            y1="-2.93182" y2="-2.8032">
            <stop stop-color="#C36DD7" />
            <stop offset="1" stop-color="#254BC8" />
        </linearGradient>
        <linearGradient gradientUnits="userSpaceOnUse" id="paint4_linear" x1="2.80571" x2="10.2625"
            y1="8.16477" y2="14.2067">
            <stop stop-color="#C36DD7" />
            <stop offset="1" stop-color="#254BC8" />
        </linearGradient>
    </defs>
</svg>
