<svg fill="none" height="15" viewBox="0 0 18 15" width="18" xmlns="http://www.w3.org/2000/svg">
    <g clip-path="url(#clip0)">
        <path
            d="M0.336678 7.48696C0.336678 7.66676 0.412399 7.82765 0.554376 7.96016L6.92445 14.3492C7.06637 14.4817 7.21785 14.5479 7.38823 14.5479C7.74788 14.5479 8.02238 14.2829 8.02238 13.9232C8.02238 13.7528 7.95613 13.5825 7.852 13.4689L5.01246 10.6104L2.22024 8.01699L4.41616 8.12112H17.2888C17.6484 8.12112 17.9134 7.8561 17.9134 7.48696C17.9134 7.11776 17.6484 6.85277 17.2888 6.85277H4.41616L2.22024 6.95686L5.01246 4.36343L7.852 1.50496C7.96561 1.38191 8.02238 1.221 8.02238 1.05063C8.02238 0.690956 7.74788 0.425932 7.38823 0.425932C7.21785 0.425932 7.05696 0.492189 6.87709 0.672026L0.554376 7.0137C0.412399 7.14621 0.336678 7.3071 0.336678 7.48696Z"
            fill="url(#paint0_linear)" fill-opacity="0.8" />
    </g>
    <defs>
        <linearGradient gradientUnits="userSpaceOnUse" id="paint0_linear" x1="-34.2605" x2="32.386"
            y1="-35.7044" y2="-21.5546">
            <stop stop-color="#C36DD7" />
            <stop offset="1" stop-color="#254BC8" />
        </linearGradient>
        <clipPath id="clip0">
            <rect fill="white" height="14.5385" width="18" />
        </clipPath>
    </defs>
</svg>
