<svg fill="none" height="27" viewBox="0 0 27 27" width="27" xmlns="http://www.w3.org/2000/svg">
    <g clip-path="url(#clip0)">
        <path
            d="M26.1774 3.82028C25.2325 4.33346 24.2172 4.68029 23.1516 4.83632C24.2394 4.03774 25.0746 2.77316 25.4679 1.26642C24.4339 2.01805 23.3025 2.54762 22.1227 2.83225C21.1617 1.57823 19.7927 0.794519 18.2774 0.794519C15.3681 0.794519 13.0093 3.68366 13.0093 7.24705C13.0093 7.75285 13.0559 8.24527 13.1457 8.71766C8.76747 8.44848 4.88576 5.87963 2.28743 1.97568C1.83406 2.92869 1.57428 4.03725 1.57428 5.21964C1.57428 7.45836 2.50438 9.43331 3.91784 10.5905C3.08127 10.5584 2.2631 10.2817 1.53165 9.78334C1.53135 9.81037 1.53135 9.83739 1.53135 9.86455C1.53135 12.9909 3.34722 15.599 5.75709 16.1918C4.98134 16.4502 4.16763 16.488 3.37812 16.3023C4.04844 18.8659 5.994 20.7314 8.29915 20.7836C6.49622 22.5142 4.22467 23.5458 1.75663 23.5458C1.33135 23.5458 0.912082 23.5152 0.499939 23.4556C2.83127 25.2865 5.60032 26.3547 8.57529 26.3547C18.2652 26.3547 23.5639 16.5222 23.5639 7.99538C23.5639 7.71551 23.5589 7.43723 23.5486 7.16055C24.58 6.24733 25.4701 5.11621 26.1774 3.82028"
            fill="#55ACEE" />
    </g>
    <defs>
        <clipPath id="clip0">
            <rect fill="white" height="25.6774" transform="translate(0.5 0.693542)"
                width="25.6774" />
        </clipPath>
    </defs>
</svg>
