<svg fill="none" height="18" viewBox="0 0 27 18" width="27" xmlns="http://www.w3.org/2000/svg">
    <path
        d="M1.06682 7.93498H25.3431C25.9322 7.93498 26.4099 8.41173 26.4099 8.9999C26.4099 9.58807 25.9322 10.0648 25.3431 10.0648H1.06682C0.477597 10.0648 7.15256e-07 9.58807 7.15256e-07 8.9999C7.15256e-07 8.41178 0.477597 7.93498 1.06682 7.93498Z"
        fill="white" />
    <path
        d="M1.06682 0H25.3431C25.9322 0 26.4099 0.476797 26.4099 1.06492C26.4099 1.65303 25.9322 2.12983 25.3431 2.12983H1.06682C0.477597 2.12983 7.15256e-07 1.65303 7.15256e-07 1.06492C7.15256e-07 0.476797 0.477597 0 1.06682 0Z"
        fill="white" />
    <path
        d="M0.581911 15.8702H13.8235C14.1449 15.8702 14.4054 16.3469 14.4054 16.9351C14.4054 17.5233 14.1449 18 13.8235 18H0.581911C0.260519 18 1.14441e-05 17.5233 1.14441e-05 16.9351C1.14441e-05 16.3469 0.260519 15.8702 0.581911 15.8702Z"
        fill="white" />
</svg>
