<svg fill="none" height="22" viewBox="0 0 4 22" width="4" xmlns="http://www.w3.org/2000/svg">
    <path clip-rule="evenodd"
        d="M4 20C4 18.8954 3.10457 18 2 18C0.89543 18 0 18.8954 0 20C0 21.1046 0.89543 22 2 22C3.10457 22 4 21.1046 4 20Z"
        fill="url(#paint0_linear)" fill-rule="evenodd" />
    <path clip-rule="evenodd"
        d="M4 11C4 9.89543 3.10457 9 2 9C0.89543 9 0 9.89543 0 11C0 12.1046 0.89543 13 2 13C3.10457 13 4 12.1046 4 11Z"
        fill="url(#paint1_linear)" fill-rule="evenodd" />
    <path clip-rule="evenodd"
        d="M4 2C4 0.89543 3.10457 0 2 0C0.89543 0 0 0.89543 0 2C0 3.10457 0.89543 4 2 4C3.10457 4 4 3.10457 4 2Z"
        fill="url(#paint2_linear)" fill-rule="evenodd" />
    <defs>
        <linearGradient gradientUnits="userSpaceOnUse" id="paint0_linear" x1="-10.2338"
            x2="-7.60641" y1="29.8734" y2="14.471">
            <stop stop-color="#C36DD7" />
            <stop offset="1" stop-color="#254BC8" />
        </linearGradient>
        <linearGradient gradientUnits="userSpaceOnUse" id="paint1_linear" x1="-10.2338"
            x2="-7.60641" y1="20.8734" y2="5.47096">
            <stop stop-color="#C36DD7" />
            <stop offset="1" stop-color="#254BC8" />
        </linearGradient>
        <linearGradient gradientUnits="userSpaceOnUse" id="paint2_linear" x1="-10.2338"
            x2="-7.60641" y1="11.8734" y2="-3.52904">
            <stop stop-color="#C36DD7" />
            <stop offset="1" stop-color="#254BC8" />
        </linearGradient>
    </defs>
</svg>
