<svg fill="none" height="31" viewBox="0 0 31 31" width="31" xmlns="http://www.w3.org/2000/svg">
    <path
        d="M26.35 3.906V0.806H3.10001V3.906H26.35ZM26.35 10.106V7.006H3.10001V10.106H26.35ZM15.5 16.306V13.206H3.10001V16.306H15.5ZM27.0475 13.268L17.7475 15.004C17.4995 15.035 17.453 15.0505 17.298 15.2055C17.1275 15.345 17.05 15.5465 17.05 15.779V22.8935C16.6005 22.692 16.027 22.6765 15.6085 22.6765C14.7715 22.6765 14.0585 22.971 13.4695 23.56C12.8805 24.149 12.6015 24.862 12.6015 25.699C12.6015 26.5205 12.8805 27.2335 13.4695 27.8225C14.0585 28.4115 14.7715 28.706 15.6085 28.706C16.368 28.706 17.0345 28.458 17.608 27.962C18.1815 27.466 18.5225 26.8615 18.6155 26.1175V17.515L26.35 15.779V22.1185C25.9005 21.917 25.482 21.824 25.0635 21.824C24.2265 21.824 23.343 22.1185 22.754 22.7075C22.165 23.281 21.8705 23.994 21.8705 24.831C21.8705 25.668 22.165 26.3655 22.754 26.9545C23.343 27.5435 24.056 27.838 24.893 27.838C25.7145 27.838 26.4275 27.5435 27.0165 26.9545C27.6055 26.3655 27.9 25.668 27.9 24.831V14.136C27.9 13.888 27.8225 13.671 27.652 13.5005C27.5795 13.4133 27.4859 13.3462 27.3801 13.3055C27.2742 13.2648 27.1597 13.2519 27.0475 13.268ZM12.4 22.506V19.406H3.10001V22.506H12.4ZM9.30001 28.706V25.606H3.10001V28.706H9.30001Z"
        fill="#1C1C1C" fill-opacity="0.8" />
</svg>
