<svg fill="none" height="30" viewBox="0 0 30 30" width="30" xmlns="http://www.w3.org/2000/svg">
    <path
        d="M21.25 21.25H19.3012L7.17625 7.90875C7.05905 7.77994 6.91622 7.67704 6.75693 7.60665C6.59764 7.53627 6.4254 7.49994 6.25125 7.5H2.5V10H5.69875L10.8112 15.625L5.69875 21.2513H2.5V23.7513H6.25125C6.4254 23.7513 6.59764 23.715 6.75693 23.6446C6.91622 23.5742 7.05905 23.4713 7.17625 23.3425L12.5 17.4838L17.8237 23.3413C17.941 23.4701 18.0838 23.573 18.2431 23.6433C18.4024 23.7137 18.5746 23.7501 18.7487 23.75H21.25V27.5L27.5 22.5L21.25 17.5V21.25V21.25Z"
        fill="#1C1C1C" fill-opacity="0.4" />
    <path
        d="M19.3012 10H21.25V13.75L27.5 8.8275L21.25 3.75V7.5H18.7487C18.5746 7.49994 18.4023 7.53626 18.2431 7.60665C18.0838 7.67704 17.9409 7.77994 17.8237 7.90875L13.6137 12.5425L15.4637 14.225L19.3012 10Z"
        fill="#1C1C1C" fill-opacity="0.4" />
</svg>
