<svg fill="none" height="30" viewBox="0 0 31 30" width="31" xmlns="http://www.w3.org/2000/svg">
    <path
        d="M20.0461 24.826V13.7017L26.5978 12.6394C25.5543 7.10852 20.7005 2.92421 14.8663 2.92421C8.27071 2.92421 2.92421 8.27071 2.92421 14.8663C2.92421 21.462 8.27071 26.8085 14.8663 26.8085C15.5061 26.8085 16.1334 26.7567 16.7456 26.66C17.2251 25.8642 18.0851 25.2255 19.1772 24.9524C19.4656 24.8811 19.7569 24.8382 20.0461 24.826ZM17.0604 3.89887L15.7809 9.50454H14.5014L13.5874 3.89887C14.9281 3.22838 17.0604 3.89887 17.0604 3.89887ZM14.8663 19.3C12.4176 19.3 10.4327 17.315 10.4327 14.8663C10.4327 12.4176 12.4176 10.4327 14.8663 10.4327C17.315 10.4327 19.3 12.4177 19.3 14.8663C19.3 17.315 17.315 19.3 14.8663 19.3ZM14.8663 11.4859C13.0019 11.4859 11.4859 13.0019 11.4859 14.8663C11.4859 16.7306 13.0019 18.2468 14.8663 18.2468C16.7307 18.2468 18.2468 16.7306 18.2468 14.8663C18.2468 13.0019 16.7306 11.4859 14.8663 11.4859ZM14.8663 17.2811C13.5349 17.2811 12.4518 16.1979 12.4518 14.8663C12.4518 13.5349 13.5353 12.4518 14.8663 12.4518C16.1979 12.4518 17.2803 13.5349 17.2803 14.8663C17.2803 16.198 16.1979 17.2811 14.8663 17.2811ZM16.3957 28.7202C16.4536 29.0408 16.5807 29.3393 16.7642 29.6074C16.1423 29.687 15.5097 29.7327 14.8667 29.7327C6.66918 29.7327 0 23.0635 0 14.8663C0 6.66918 6.66918 0 14.8663 0C22.1428 0 28.2111 5.25687 29.4834 12.1713L28.0402 12.4057C26.8809 6.18617 21.4166 1.46232 14.8663 1.46232C7.47526 1.46232 1.46232 7.47532 1.46232 14.8663C1.46232 22.2574 7.47532 28.2704 14.8663 28.2704C15.3613 28.2704 15.8496 28.2415 16.3308 28.189C16.335 28.3653 16.3543 28.5427 16.3957 28.7202ZM31 12.9729V25.8624C31 26.9298 30.2042 27.7813 28.9629 28.0947C27.6002 28.4324 26.2847 27.8619 26.0233 26.8174C25.762 25.771 26.6545 24.6489 28.0168 24.308C28.6327 24.1559 29.2385 24.187 29.7458 24.3655V16.6003L22.7775 17.8738L22.7454 27.5342H22.744C22.7379 28.4492 21.9129 29.3471 20.7262 29.6409C19.3804 29.9797 17.9694 29.3389 17.8181 28.38C17.5593 27.3454 18.4415 26.2347 19.7909 25.8967C20.3982 25.7457 20.9916 25.776 21.4903 25.9506V14.5154L31 12.9729Z"
        fill="#1C1C1C" fill-opacity="0.8" />
</svg>
