<svg fill="none" height="21" viewBox="0 0 21 21" width="21" xmlns="http://www.w3.org/2000/svg">
    <g clip-path="url(#clip0)">
        <path
            d="M20.7953 4.08107L19.8324 5.04493C19.6958 5.18165 19.5319 5.25001 19.3407 5.25001C19.1495 5.25001 18.9924 5.18165 18.8695 5.04493L18.132 4.32716L17.0666 5.39357C17.8861 6.24122 18.5246 7.21876 18.9822 8.32618C19.4397 9.4336 19.6685 10.5957 19.6685 11.8125C19.6685 13.0567 19.4295 14.2461 18.9515 15.3809C18.4734 16.5156 17.8247 17.4932 17.0052 18.3135C16.1857 19.1338 15.2091 19.7866 14.0755 20.272C12.9419 20.7573 11.7536 21 10.5107 21C9.26779 21 8.07953 20.7573 6.9459 20.272C5.81226 19.7866 4.8357 19.1338 4.01621 18.3135C3.19671 17.4932 2.54453 16.5156 2.05967 15.3809C1.5748 14.2461 1.33237 13.0567 1.33237 11.8125C1.33237 10.5957 1.56456 9.4336 2.02894 8.32618C2.49332 7.21876 3.13525 6.24122 3.95475 5.39357L2.8894 4.32716L2.15186 5.04493C2.02894 5.18165 1.87187 5.25001 1.68065 5.25001C1.48944 5.25001 1.32554 5.18165 1.18896 5.04493L0.226052 4.08107C0.0894703 3.94435 0.0211792 3.78028 0.0211792 3.58888C0.0211792 3.39747 0.0894703 3.24025 0.226052 3.1172L3.13525 0.205089C3.25818 0.0683706 3.41525 1.12057e-05 3.60646 1.12057e-05C3.79768 1.12057e-05 3.96157 0.0683706 4.09816 0.205089L5.06106 1.16896C5.19764 1.30568 5.26593 1.46974 5.26593 1.66114C5.26593 1.85255 5.19764 2.00978 5.06106 2.13282L4.344 2.8711L5.55276 4.10157C6.67273 3.37696 7.89514 2.91896 9.21999 2.72755V2.64552H8.54391C8.36635 2.64552 8.21269 2.58058 8.08294 2.45069C7.95319 2.32081 7.88831 2.167 7.88831 1.98927V0.676769C7.88831 0.485363 7.95319 0.328136 8.08294 0.205089C8.21269 0.0820424 8.36635 0.020519 8.54391 0.020519H12.4775C12.655 0.020519 12.8087 0.0820424 12.9384 0.205089C13.0682 0.328136 13.1331 0.485363 13.1331 0.676769V1.98927C13.1331 2.167 13.0682 2.32081 12.9384 2.45069C12.8087 2.58058 12.655 2.64552 12.4775 2.64552H11.8219V2.72755C13.1331 2.91896 14.3486 3.37696 15.4686 4.10157L16.6774 2.8711L15.9603 2.13282C15.8237 2.00978 15.7554 1.85255 15.7554 1.66114C15.7554 1.46974 15.8237 1.30568 15.9603 1.16896L16.9232 0.205089C17.0598 0.0683706 17.2237 1.12057e-05 17.4149 1.12057e-05C17.6061 1.12057e-05 17.7632 0.0683706 17.8861 0.205089L20.7953 3.1172C20.9319 3.24025 21.0002 3.39747 21.0002 3.58888C21.0002 3.78028 20.9319 3.94435 20.7953 4.08107ZM10.5107 5.25001C9.32242 5.25001 8.22635 5.54396 7.22247 6.13185C6.2186 6.71974 5.423 7.51612 4.8357 8.52101C4.2484 9.52589 3.95475 10.6231 3.95475 11.8125C3.95475 13.002 4.2484 14.0991 4.8357 15.104C5.423 16.1089 6.2186 16.9053 7.22247 17.4932C8.22635 18.0811 9.32242 18.375 10.5107 18.375C11.699 18.375 12.795 18.0811 13.7989 17.4932C14.8028 16.9053 15.5984 16.1089 16.1857 15.104C16.773 14.0991 17.0666 13.002 17.0666 11.8125C17.0666 10.6231 16.773 9.52589 16.1857 8.52101C15.5984 7.51612 14.8028 6.71974 13.7989 6.13185C12.795 5.54396 11.699 5.25001 10.5107 5.25001ZM11.8219 11.8125C11.8219 12.1817 11.6955 12.4927 11.4429 12.7456C11.1902 12.9985 10.8795 13.125 10.5107 13.125C10.1556 13.125 9.84827 12.9985 9.58876 12.7456C9.32925 12.4927 9.1995 12.1851 9.1995 11.8228C9.1995 11.4605 9.32925 11.1494 9.58876 10.8897C9.84827 10.6299 10.1556 10.5 10.5107 10.5C10.5517 10.5 10.62 10.5068 10.7156 10.5205L13.7887 7.89552V7.87501H14.4443V8.53126L11.8014 11.6279C11.815 11.7236 11.8219 11.7852 11.8219 11.8125Z"
            fill="url(#paint0_linear)" />
    </g>
    <defs>
        <linearGradient gradientUnits="userSpaceOnUse" id="paint0_linear" x1="-41.2728" x2="39.5137"
            y1="-53.7273" y2="-39.9604">
            <stop stop-color="#C36DD7" />
            <stop offset="1" stop-color="#254BC8" />
        </linearGradient>
        <clipPath id="clip0">
            <rect fill="white" height="21" width="21" />
        </clipPath>
    </defs>
</svg>
